# xmcd CD database file
#
# Track frame offsets:
#	150
#	11795
#	26102
#	37912
#	51295
#	66295
#	82655
#	94802
#	105737
#	116645
#	128142
#	141852
#	152992
#	169990
#	182577
#	195030
#
# Disc length: 2770 seconds
#
# Revision: 3
# Processed by: cddbd v1.5.2PL0 Copyright (c) Steve Scherf et al.
# Submitted via: CDex 1.51
#
DISCID=d10ad010
DTITLE=Various Artist - Country Lovesongs - Vol.2
DYEAR=2001
DGENRE=Country
TTITLE0=Patsy Cline - Walking After Nidnight
TTITLE1=Kenny Rogers - It's Raining In My Mind
TTITLE2=Johnny Cash - Port Of Lonely Hearts
TTITLE3=Lynn Anderson - Rose Garden
TTITLE4=Freddy Fender - I Can't Stop Loving You
TTITLE5=Ed Bruce and Lynn Anderson - Fools For Eachother
TTITLE6=Johnny Rodriguez - Love Me With All Your Heart
TTITLE7=George Jones - I'll Share My World With You
TTITLE8=Don Willams - Spend Some Time With Me
TTITLE9=Willie Nelson - December Days
TTITLE10=Jerry Lee Lewis - Cold Cold Heart
TTITLE11=Waylon Jennings - Dream Baby
TTITLE12=Lynn Anderson - Blue Bayou
TTITLE13=Willie Nelson - Any Old Arms Won't Do
TTITLE14=Billie Joe Spears - Sunshine
TTITLE15=Kenny Rogers - Ruby, Don't Take Your Love To Town
EXTD=YEAR: 2001
EXTT0=
EXTT1=
EXTT2=
EXTT3=
EXTT4=
EXTT5=
EXTT6=
EXTT7=
EXTT8=
EXTT9=
EXTT10=
EXTT11=
EXTT12=
EXTT13=
EXTT14=
EXTT15=
PLAYORDER=
